<svg width="37" height="37" viewBox="0 0 37 37" fill="none" xmlns="http://www.w3.org/2000/svg">
<path opacity="0.4" d="M11.1 29.6001C9.05571 29.6001 7.41846 31.2558 7.41846 33.3001C7.41846 35.3443 9.05571 37.0001 11.1 37.0001C13.1442 37.0001 14.8 35.3443 14.8 33.3001C14.8 31.2558 13.1442 29.6001 11.1 29.6001Z" fill="#473BF0"/>
<path d="M0 0V3.7H3.7L10.3507 17.7323L7.85325 22.2647C7.5665 22.8012 7.4 23.4025 7.4 24.05C7.4 26.0942 9.05575 27.75 11.1 27.75H33.3V24.05H11.8862C11.6272 24.05 11.4237 23.8465 11.4237 23.5875C11.4237 23.5042 11.4422 23.4302 11.4792 23.3655L13.135 20.35H26.9175C28.305 20.35 29.5168 19.5822 30.155 18.4445L36.7687 6.438C36.9167 6.179 37 5.87375 37 5.55C37 4.52325 36.1675 3.7 35.15 3.7H7.79775L6.04025 0H0Z" fill="#473BF0"/>
<path opacity="0.4" d="M29.6 29.6001C27.5557 29.6001 25.9185 31.2558 25.9185 33.3001C25.9185 35.3443 27.5557 37.0001 29.6 37.0001C31.6442 37.0001 33.3 35.3443 33.3 33.3001C33.3 31.2558 31.6442 29.6001 29.6 29.6001Z" fill="#473BF0"/>
</svg>
